<mxfile host="app.diagrams.net" agent="Mozilla/5.0 (Windows NT 10.0; Win64; x64) AppleWebKit/537.36 (KHTML, like Gecko) Chrome/131.0.0.0 Safari/537.36" version="26.0.3">
  <diagram name="Page-1" id="zOEEpCLVx3BSE4MT3N1Z">
    <mxGraphModel dx="1129" dy="893" grid="1" gridSize="10" guides="1" tooltips="1" connect="1" arrows="1" fold="1" page="1" pageScale="1" pageWidth="827" pageHeight="1169" math="0" shadow="0">
      <root>
        <mxCell id="0" />
        <mxCell id="1" parent="0" />
        <mxCell id="m88zG1PSdtv8Twhl0nPQ-90" value="" style="shape=umlLifeline;perimeter=lifelinePerimeter;whiteSpace=wrap;html=1;container=1;dropTarget=0;collapsible=0;recursiveResize=0;outlineConnect=0;portConstraint=eastwest;newEdgeStyle={&quot;curved&quot;:0,&quot;rounded&quot;:0};participant=umlActor;" vertex="1" parent="1">
          <mxGeometry x="50" y="110" width="20" height="440" as="geometry" />
        </mxCell>
        <mxCell id="m88zG1PSdtv8Twhl0nPQ-91" value="" style="html=1;points=[[0,0,0,0,5],[0,1,0,0,-5],[1,0,0,0,5],[1,1,0,0,-5]];perimeter=orthogonalPerimeter;outlineConnect=0;targetShapes=umlLifeline;portConstraint=eastwest;newEdgeStyle={&quot;curved&quot;:0,&quot;rounded&quot;:0};" vertex="1" parent="m88zG1PSdtv8Twhl0nPQ-90">
          <mxGeometry x="5" y="50" width="10" height="360" as="geometry" />
        </mxCell>
        <mxCell id="m88zG1PSdtv8Twhl0nPQ-92" value="Gestore del Catalogo" style="text;html=1;align=center;verticalAlign=middle;whiteSpace=wrap;rounded=0;" vertex="1" parent="1">
          <mxGeometry x="30" y="70" width="60" height="30" as="geometry" />
        </mxCell>
        <mxCell id="m88zG1PSdtv8Twhl0nPQ-93" value="clickOnRemoveFilm()" style="html=1;verticalAlign=bottom;endArrow=block;curved=0;rounded=0;exitX=0.8;exitY=0.166;exitDx=0;exitDy=0;exitPerimeter=0;" edge="1" parent="1" target="m88zG1PSdtv8Twhl0nPQ-95">
          <mxGeometry width="80" relative="1" as="geometry">
            <mxPoint x="64" y="219.76" as="sourcePoint" />
            <mxPoint x="220" y="220" as="targetPoint" />
          </mxGeometry>
        </mxCell>
        <mxCell id="m88zG1PSdtv8Twhl0nPQ-94" value=":Film_Boundary" style="shape=umlLifeline;perimeter=lifelinePerimeter;whiteSpace=wrap;html=1;container=1;dropTarget=0;collapsible=0;recursiveResize=0;outlineConnect=0;portConstraint=eastwest;newEdgeStyle={&quot;curved&quot;:0,&quot;rounded&quot;:0};" vertex="1" parent="1">
          <mxGeometry x="150" y="110" width="160" height="460" as="geometry" />
        </mxCell>
        <mxCell id="m88zG1PSdtv8Twhl0nPQ-95" value="" style="html=1;points=[[0,0,0,0,5],[0,1,0,0,-5],[1,0,0,0,5],[1,1,0,0,-5]];perimeter=orthogonalPerimeter;outlineConnect=0;targetShapes=umlLifeline;portConstraint=eastwest;newEdgeStyle={&quot;curved&quot;:0,&quot;rounded&quot;:0};" vertex="1" parent="m88zG1PSdtv8Twhl0nPQ-94">
          <mxGeometry x="75" y="85" width="10" height="305" as="geometry" />
        </mxCell>
        <mxCell id="m88zG1PSdtv8Twhl0nPQ-96" value="" style="html=1;points=[[0,0,0,0,5],[0,1,0,0,-5],[1,0,0,0,5],[1,1,0,0,-5]];perimeter=orthogonalPerimeter;outlineConnect=0;targetShapes=umlLifeline;portConstraint=eastwest;newEdgeStyle={&quot;curved&quot;:0,&quot;rounded&quot;:0};" vertex="1" parent="m88zG1PSdtv8Twhl0nPQ-94">
          <mxGeometry x="80" y="150" width="10" height="80" as="geometry" />
        </mxCell>
        <mxCell id="m88zG1PSdtv8Twhl0nPQ-97" value="showForm()" style="html=1;align=left;spacingLeft=2;endArrow=block;rounded=0;edgeStyle=orthogonalEdgeStyle;curved=0;rounded=0;" edge="1" parent="m88zG1PSdtv8Twhl0nPQ-94" target="m88zG1PSdtv8Twhl0nPQ-96">
          <mxGeometry relative="1" as="geometry">
            <mxPoint x="85" y="130" as="sourcePoint" />
            <Array as="points">
              <mxPoint x="115" y="160" />
            </Array>
          </mxGeometry>
        </mxCell>
        <mxCell id="m88zG1PSdtv8Twhl0nPQ-103" value="" style="shape=umlDestroy;whiteSpace=wrap;html=1;strokeWidth=3;targetShapes=umlLifeline;" vertex="1" parent="m88zG1PSdtv8Twhl0nPQ-94">
          <mxGeometry x="65" y="370" width="30" height="30" as="geometry" />
        </mxCell>
        <mxCell id="m88zG1PSdtv8Twhl0nPQ-98" value=":Catalogo_Control" style="shape=umlLifeline;perimeter=lifelinePerimeter;whiteSpace=wrap;html=1;container=1;dropTarget=0;collapsible=0;recursiveResize=0;outlineConnect=0;portConstraint=eastwest;newEdgeStyle={&quot;curved&quot;:0,&quot;rounded&quot;:0};" vertex="1" parent="1">
          <mxGeometry x="330" y="110" width="130" height="430" as="geometry" />
        </mxCell>
        <mxCell id="m88zG1PSdtv8Twhl0nPQ-99" value="" style="html=1;points=[[0,0,0,0,5],[0,1,0,0,-5],[1,0,0,0,5],[1,1,0,0,-5]];perimeter=orthogonalPerimeter;outlineConnect=0;targetShapes=umlLifeline;portConstraint=eastwest;newEdgeStyle={&quot;curved&quot;:0,&quot;rounded&quot;:0};" vertex="1" parent="m88zG1PSdtv8Twhl0nPQ-98">
          <mxGeometry x="60" y="100" width="10" height="290" as="geometry" />
        </mxCell>
        <mxCell id="m88zG1PSdtv8Twhl0nPQ-100" value=":Catalogo" style="shape=umlLifeline;perimeter=lifelinePerimeter;whiteSpace=wrap;html=1;container=1;dropTarget=0;collapsible=0;recursiveResize=0;outlineConnect=0;portConstraint=eastwest;newEdgeStyle={&quot;curved&quot;:0,&quot;rounded&quot;:0};" vertex="1" parent="1">
          <mxGeometry x="520" y="110" width="100" height="350" as="geometry" />
        </mxCell>
        <mxCell id="m88zG1PSdtv8Twhl0nPQ-101" value="" style="html=1;points=[[0,0,0,0,5],[0,1,0,0,-5],[1,0,0,0,5],[1,1,0,0,-5]];perimeter=orthogonalPerimeter;outlineConnect=0;targetShapes=umlLifeline;portConstraint=eastwest;newEdgeStyle={&quot;curved&quot;:0,&quot;rounded&quot;:0};" vertex="1" parent="m88zG1PSdtv8Twhl0nPQ-100">
          <mxGeometry x="45" y="220" width="10" height="100" as="geometry" />
        </mxCell>
        <mxCell id="m88zG1PSdtv8Twhl0nPQ-102" value="clickYes()" style="html=1;verticalAlign=bottom;endArrow=block;curved=0;rounded=0;" edge="1" parent="1" target="m88zG1PSdtv8Twhl0nPQ-96">
          <mxGeometry width="80" relative="1" as="geometry">
            <mxPoint x="70" y="280" as="sourcePoint" />
            <mxPoint x="220" y="280" as="targetPoint" />
          </mxGeometry>
        </mxCell>
        <mxCell id="m88zG1PSdtv8Twhl0nPQ-104" value="removeFilm(film)" style="html=1;verticalAlign=bottom;endArrow=block;curved=0;rounded=0;" edge="1" parent="1" target="m88zG1PSdtv8Twhl0nPQ-99">
          <mxGeometry width="80" relative="1" as="geometry">
            <mxPoint x="240" y="330" as="sourcePoint" />
            <mxPoint x="370" y="330" as="targetPoint" />
          </mxGeometry>
        </mxCell>
        <mxCell id="m88zG1PSdtv8Twhl0nPQ-105" value="rimuoviFilm(film)" style="html=1;verticalAlign=bottom;endArrow=block;curved=0;rounded=0;" edge="1" parent="1" target="m88zG1PSdtv8Twhl0nPQ-101">
          <mxGeometry x="0.0061" width="80" relative="1" as="geometry">
            <mxPoint x="400" y="350" as="sourcePoint" />
            <mxPoint x="480" y="350" as="targetPoint" />
            <mxPoint as="offset" />
          </mxGeometry>
        </mxCell>
        <mxCell id="m88zG1PSdtv8Twhl0nPQ-113" value="films" style="html=1;verticalAlign=bottom;endArrow=open;dashed=1;endSize=8;curved=0;rounded=0;" edge="1" parent="1" target="m88zG1PSdtv8Twhl0nPQ-99">
          <mxGeometry relative="1" as="geometry">
            <mxPoint x="565" y="409" as="sourcePoint" />
            <mxPoint x="410" y="409" as="targetPoint" />
          </mxGeometry>
        </mxCell>
        <mxCell id="m88zG1PSdtv8Twhl0nPQ-114" value=":Catalogo_Boundary" style="shape=umlLifeline;perimeter=lifelinePerimeter;whiteSpace=wrap;html=1;container=1;dropTarget=0;collapsible=0;recursiveResize=0;outlineConnect=0;portConstraint=eastwest;newEdgeStyle={&quot;curved&quot;:0,&quot;rounded&quot;:0};" vertex="1" parent="1">
          <mxGeometry x="620" y="470" width="140" height="300" as="geometry" />
        </mxCell>
        <mxCell id="m88zG1PSdtv8Twhl0nPQ-115" value="" style="html=1;points=[[0,0,0,0,5],[0,1,0,0,-5],[1,0,0,0,5],[1,1,0,0,-5]];perimeter=orthogonalPerimeter;outlineConnect=0;targetShapes=umlLifeline;portConstraint=eastwest;newEdgeStyle={&quot;curved&quot;:0,&quot;rounded&quot;:0};" vertex="1" parent="m88zG1PSdtv8Twhl0nPQ-114">
          <mxGeometry x="65" y="50" width="10" height="80" as="geometry" />
        </mxCell>
        <mxCell id="m88zG1PSdtv8Twhl0nPQ-121" value="createCatalogo(films)" style="endArrow=open;endSize=12;dashed=1;html=1;rounded=0;entryX=0;entryY=0.067;entryDx=0;entryDy=0;entryPerimeter=0;" edge="1" parent="1" target="m88zG1PSdtv8Twhl0nPQ-114">
          <mxGeometry x="0.0323" y="10" width="160" relative="1" as="geometry">
            <mxPoint x="400" y="490" as="sourcePoint" />
            <mxPoint x="570" y="490" as="targetPoint" />
            <mxPoint as="offset" />
          </mxGeometry>
        </mxCell>
        <mxCell id="m88zG1PSdtv8Twhl0nPQ-172" value="getFilms()" style="html=1;verticalAlign=bottom;endArrow=block;curved=0;rounded=0;" edge="1" parent="1" target="m88zG1PSdtv8Twhl0nPQ-101">
          <mxGeometry width="80" relative="1" as="geometry">
            <mxPoint x="400" y="380" as="sourcePoint" />
            <mxPoint x="560" y="380" as="targetPoint" />
          </mxGeometry>
        </mxCell>
      </root>
    </mxGraphModel>
  </diagram>
</mxfile>
